<?xml version="1.0" encoding="iso-8859-1"?>
<!-- Generator: Adobe Illustrator 18.0.0, SVG Export Plug-In . SVG Version: 6.00 Build 0)  -->
<!DOCTYPE svg PUBLIC "-//W3C//DTD SVG 1.1//EN" "http://www.w3.org/Graphics/SVG/1.1/DTD/svg11.dtd">
<svg version="1.1" id="Capa_1" xmlns="http://www.w3.org/2000/svg" xmlns:xlink="http://www.w3.org/1999/xlink" x="0px" y="0px"
	 viewBox="0 0 45.928 45.928" style="enable-background:new 0 0 45.928 45.928;" xml:space="preserve">
<path d="M34.952,33.19c-2.218,0-4.172,1.141-5.313,2.866l-13.914-7.507c0.538-1.007,0.845-2.155,0.845-3.374
	c0-1.219-0.307-2.366-0.844-3.373l12.094-7.89c1.597,2.219,4.195,3.672,7.132,3.672c4.848,0,8.792-3.944,8.792-8.792
	C43.744,3.944,39.8,0,34.952,0s-8.791,3.944-8.791,8.792c0,1.195,0.242,2.334,0.675,3.373l-12.291,8.018
	c-1.309-1.355-3.14-2.202-5.169-2.202c-3.967,0-7.193,3.227-7.193,7.194c0,3.966,3.227,7.193,7.193,7.193
	c2.022,0,3.849-0.842,5.157-2.19l14.281,7.705c-0.146,0.535-0.231,1.095-0.231,1.676c0,3.512,2.856,6.369,6.368,6.369
	s6.369-2.857,6.369-6.369S38.464,33.19,34.952,33.19z M34.952,2c3.745,0,6.792,3.047,6.792,6.792c0,3.745-3.047,6.792-6.792,6.792
	c-3.744,0-6.791-3.047-6.791-6.792C28.161,5.047,31.208,2,34.952,2z M9.377,30.368c-2.863,0-5.193-2.33-5.193-5.193
	s2.33-5.194,5.193-5.194s5.193,2.33,5.193,5.194S12.24,30.368,9.377,30.368z M34.952,43.928c-2.408,0-4.368-1.96-4.368-4.369
	c0-2.409,1.96-4.369,4.368-4.369c2.409,0,4.369,1.96,4.369,4.369C39.322,41.968,37.362,43.928,34.952,43.928z"/>
<g>
</g>
<g>
</g>
<g>
</g>
<g>
</g>
<g>
</g>
<g>
</g>
<g>
</g>
<g>
</g>
<g>
</g>
<g>
</g>
<g>
</g>
<g>
</g>
<g>
</g>
<g>
</g>
<g>
</g>
</svg>
